<svg xmlns="http://www.w3.org/2000/svg" xmlns:xlink="http://www.w3.org/1999/xlink" version="1.1" x="0px" y="0px" viewBox="0 0 100 125" fill="#a3b1c699" enable-background="new 0 0 100 100" xml:space="preserve"><g><g><path d="M33.1,26.3c1.5,8.5,8.4,14.9,16.9,14.9c9.5,0,17.1-8.1,17.1-18.2c0-1.4-0.2-2.8-0.5-4.2c0-0.1,0-0.1,0-0.2c0,0,0,0,0-0.1    C64.8,10.7,58,4.8,50,4.8C40.5,4.8,32.9,13,32.9,23c0,1,0.1,1.9,0.2,2.8c0,0.1,0,0.1,0,0.2C33.1,26.1,33.1,26.2,33.1,26.3z     M50,37.2c-5.8,0-10.8-4.1-12.5-9.8c7.2-1.5,11.2-4.8,13.3-7.3c0.4-0.4,1-0.5,1.6-0.3C55,21,58.6,21.5,63,21.3    c0.1,0.5,0.1,1.1,0.1,1.7C63.1,30.8,57.2,37.2,50,37.2z M50,8.8c5.4,0,10,3.5,12,8.5c-3.4,0.1-6.1-0.3-7.9-1.2    c-2.3-1.1-4.9-0.5-6.4,1.3c-1.7,2-4.9,4.6-10.8,5.9c0-0.1,0-0.3,0-0.4C36.9,15.2,42.8,8.8,50,8.8z"/><path d="M22.6,62.7v30.5c0,1.1,0.9,2,2,2h15.3h20.1h0h15.3c1.1,0,2-0.9,2-2V62.7c0-8.8-7.2-16-16-16h-2.1H40.7h-2.1    C29.8,46.7,22.6,53.8,22.6,62.7z M42.8,91.2L50,71.5l7.2,19.7H42.8z M73.4,62.7v28.5H61.5l-9.3-25.3l8.3-15.2h0.9    C68,50.7,73.4,56,73.4,62.7z M55.9,50.7L50,61.5l-5.9-10.8H55.9z M38.6,50.7h0.9l8.3,15.2l-9.3,25.3H26.6V62.7    C26.6,56,32,50.7,38.6,50.7z"/></g></g></svg>